<svg xmlns="http://www.w3.org/2000/svg" xmlns:xlink="http://www.w3.org/1999/xlink" width="500" zoomAndPan="magnify" viewBox="0 0 375 374.999991" height="500" preserveAspectRatio="xMidYMid meet" version="1.0"><defs><g/></defs><path fill="#51ade5" d="M 94.078125 260.792969 C 95.378906 257.023438 98.957031 254.316406 103.167969 254.316406 C 104.5 254.316406 105.773438 254.589844 106.925781 255.082031 C 105.851562 253.820312 105.199219 252.191406 105.199219 250.40625 C 105.199219 246.429688 108.421875 243.210938 112.398438 243.210938 C 116.375 243.210938 119.597656 246.429688 119.597656 250.40625 C 119.597656 251.382812 119.402344 252.3125 119.050781 253.164062 C 122.238281 254.730469 124.4375 258.007812 124.4375 261.800781 C 124.4375 263.371094 124.058594 264.847656 123.390625 266.160156 L 128.421875 266.160156 C 130.183594 264.132812 132.78125 262.847656 135.679688 262.847656 C 138.113281 262.847656 140.335938 263.753906 142.03125 265.246094 C 143.070312 261.957031 145.832031 259.429688 149.257812 258.726562 C 149.1875 258.359375 149.148438 257.988281 149.148438 257.601562 C 149.148438 254.453125 151.703125 251.902344 154.851562 251.902344 C 158.003906 251.902344 160.554688 254.453125 160.554688 257.601562 C 160.554688 259.339844 159.777344 260.894531 158.550781 261.9375 C 159.558594 263.132812 160.277344 264.574219 160.609375 266.160156 L 160.675781 266.160156 C 161.9375 264.070312 164.226562 262.671875 166.84375 262.671875 C 168.285156 262.671875 169.625 263.097656 170.753906 263.828125 C 170.511719 263.199219 170.378906 262.515625 170.378906 261.800781 C 170.378906 258.652344 172.933594 256.097656 176.082031 256.097656 C 179.234375 256.097656 181.785156 258.652344 181.785156 261.800781 L 181.785156 261.8125 C 184.042969 261.921875 186.089844 262.8125 187.679688 264.210938 C 188.984375 262.375 191.125 261.179688 193.550781 261.179688 C 194.5625 261.179688 195.523438 261.386719 196.398438 261.761719 C 197.304688 258.820312 200.046875 256.6875 203.28125 256.6875 C 207.085938 256.6875 210.203125 259.640625 210.46875 263.378906 C 211.257812 262.398438 212.234375 261.574219 213.34375 260.96875 C 212.652344 260.023438 212.238281 258.863281 212.238281 257.601562 C 212.238281 254.453125 214.792969 251.902344 217.941406 251.902344 C 221.09375 251.902344 223.648438 254.453125 223.648438 257.601562 C 223.648438 258.863281 223.234375 260.023438 222.542969 260.96875 C 223.203125 261.328125 223.8125 261.765625 224.363281 262.261719 C 230.230469 258.535156 234.476562 252.414062 235.648438 245.132812 L 249.527344 158.738281 C 248.511719 159.6875 247.488281 160.632812 246.453125 161.566406 C 236.65625 170.414062 226.007812 178.539062 214.632812 185.859375 C 214.730469 187.210938 214.785156 188.566406 214.785156 189.941406 C 214.785156 220.050781 190.371094 244.457031 160.257812 244.457031 C 130.144531 244.457031 105.734375 220.050781 105.734375 189.941406 C 105.734375 160.382812 129.257812 136.320312 158.613281 135.453125 C 158.777344 131.285156 158.667969 127.109375 158.265625 122.921875 C 157.558594 115.546875 156.007812 109.046875 154.242188 103.640625 L 88.273438 103.640625 C 74.566406 103.640625 64.109375 115.90625 66.285156 129.4375 L 84.871094 245.132812 C 85.898438 251.527344 89.296875 257.023438 94.078125 260.792969 " fill-opacity="1" fill-rule="nonzero"/><path fill="#51ade5" d="M 152.648438 158.761719 C 153.460938 158.566406 154.011719 157.816406 153.980469 156.976562 L 153.980469 156.945312 C 153.9375 155.835938 152.890625 155.039062 151.816406 155.296875 C 136.046875 159.09375 124.332031 173.28125 124.320312 190.210938 C 124.316406 197.085938 126.273438 203.527344 129.65625 209.003906 C 130.480469 208.046875 131.289062 207.085938 132.082031 206.125 C 129.429688 201.453125 127.90625 196.066406 127.882812 190.359375 C 127.824219 175.042969 138.402344 162.195312 152.648438 158.761719 " fill-opacity="1" fill-rule="nonzero"/><path fill="#51ade5" d="M 191.683594 201.691406 L 191.644531 201.695312 C 190.96875 201.726562 190.375 202.140625 190.113281 202.761719 C 185.085938 214.726562 173.078125 223.03125 159.183594 222.585938 C 151.921875 222.347656 145.261719 219.695312 139.96875 215.417969 C 138.421875 215.824219 137.019531 216.175781 135.777344 216.472656 C 142.179688 222.449219 150.753906 226.136719 160.148438 226.164062 C 175.117188 226.207031 187.964844 217.101562 193.410156 204.117188 C 193.914062 202.917969 192.984375 201.617188 191.683594 201.691406 " fill-opacity="1" fill-rule="nonzero"/><path fill="#3871c1" d="M 105.734375 126.792969 C 105.734375 133.421875 100.359375 138.792969 93.734375 138.792969 C 87.105469 138.792969 81.734375 133.421875 81.734375 126.792969 C 81.734375 120.167969 87.105469 114.796875 93.734375 114.796875 C 100.359375 114.796875 105.734375 120.167969 105.734375 126.792969 " fill-opacity="1" fill-rule="nonzero"/><path fill="#3871c1" d="M 125.101562 126.792969 C 125.101562 129.933594 122.554688 132.480469 119.417969 132.480469 C 116.277344 132.480469 113.730469 129.933594 113.730469 126.792969 C 113.730469 123.65625 116.277344 121.109375 119.417969 121.109375 C 122.554688 121.109375 125.101562 123.65625 125.101562 126.792969 " fill-opacity="1" fill-rule="nonzero"/><path fill="#3871c1" d="M 211.371094 187.921875 C 211.398438 188.59375 211.414062 189.265625 211.414062 189.941406 C 211.414062 218.1875 188.511719 241.085938 160.257812 241.085938 C 132.003906 241.085938 109.101562 218.1875 109.101562 189.941406 C 109.101562 162.308594 131.019531 139.796875 158.421875 138.828125 C 158.648438 135.882812 158.730469 132.929688 158.671875 129.972656 C 126.269531 130.8125 100.257812 157.339844 100.257812 189.941406 C 100.257812 223.070312 127.121094 249.929688 160.257812 249.929688 C 193.394531 249.929688 220.257812 223.070312 220.257812 189.941406 C 220.257812 187.402344 220.097656 184.902344 219.789062 182.449219 C 217.03125 184.320312 214.222656 186.148438 211.371094 187.921875 " fill-opacity="1" fill-rule="nonzero"/><path fill="#51ade5" d="M 202.394531 200.332031 C 197.816406 219.488281 180.519531 233.699219 159.925781 233.546875 C 136.042969 233.367188 116.9375 214.113281 116.9375 190.230469 C 116.9375 170.601562 130 154.019531 147.910156 148.703125 C 148.847656 148.425781 149.496094 147.570312 149.496094 146.589844 C 149.496094 145.128906 148.09375 144.058594 146.6875 144.476562 C 126.945312 150.320312 112.539062 168.59375 112.539062 190.230469 C 112.539062 216.664062 134.605469 238.363281 161.039062 237.9375 C 183.21875 237.582031 201.726562 222.09375 206.675781 201.351562 C 207.003906 199.980469 205.988281 198.667969 204.582031 198.644531 L 204.539062 198.644531 C 203.511719 198.628906 202.632812 199.339844 202.394531 200.332031 " fill-opacity="1" fill-rule="nonzero"/><path fill="#f68317" d="M 257.316406 98.089844 C 261.449219 80.105469 260.3125 77.628906 243.980469 69.035156 C 261.964844 73.167969 264.441406 72.027344 273.039062 55.699219 C 268.90625 73.683594 270.042969 76.160156 286.375 84.753906 C 268.390625 80.621094 265.910156 81.757812 257.316406 98.089844 Z M 209.597656 163.144531 C 204.21875 138.539062 201.371094 136.144531 176.207031 135.054688 C 200.816406 129.679688 203.210938 126.832031 204.300781 101.671875 C 209.679688 126.277344 212.527344 128.671875 237.691406 129.761719 C 213.082031 135.136719 210.6875 137.984375 209.597656 163.144531 Z M 171.6875 44.628906 C 167.660156 33.128906 166.152344 32.144531 154.007812 33.097656 C 165.507812 29.074219 166.492188 27.5625 165.539062 15.417969 C 169.5625 26.917969 171.070312 27.898438 183.21875 26.949219 C 171.71875 30.972656 170.734375 32.484375 171.6875 44.628906 Z M 349.984375 61.382812 C 349.984375 61.382812 314.5625 29.664062 274.21875 9.824219 C 270.585938 8.035156 266.179688 9.398438 264.246094 12.957031 C 256.9375 26.402344 242.105469 34.910156 225.902344 33.375 C 209.667969 31.832031 196.679688 20.640625 192.058594 6.007812 C 190.855469 2.191406 186.84375 -0.00390625 182.976562 1.023438 C 142.84375 11.652344 98.773438 37.535156 98.773438 37.535156 C 89.449219 48.796875 113.390625 86.601562 113.390625 86.601562 C 127.289062 89.558594 151.449219 82.433594 151.449219 82.433594 C 151.449219 82.433594 194.191406 142.769531 128.613281 214.847656 C 128.613281 214.847656 236.496094 196.480469 289.796875 95.566406 C 289.796875 95.566406 312.183594 107.109375 326.390625 106.820312 C 326.390625 106.820312 357.023438 74.191406 349.984375 61.382812 " fill-opacity="1" fill-rule="nonzero"/><path fill="#6ed0eb" d="M 277.832031 221.496094 C 276.160156 224.925781 272.234375 222.367188 267.59375 220.097656 C 262.949219 217.828125 259.34375 216.703125 261.023438 213.277344 C 262.695312 209.851562 267.816406 208.914062 272.460938 211.183594 C 277.105469 213.453125 279.511719 218.070312 277.832031 221.496094 Z M 258.929688 207.878906 C 250.789062 211.652344 247.261719 221.308594 251.035156 229.449219 C 254.816406 237.582031 264.472656 241.113281 272.609375 237.335938 C 280.746094 233.558594 284.277344 223.902344 280.5 215.765625 C 276.722656 207.632812 267.066406 204.097656 258.929688 207.878906 " fill-opacity="1" fill-rule="nonzero"/><path fill="#6ed0eb" d="M 49.867188 177.382812 C 50.335938 181.167969 45.652344 181.167969 40.519531 181.800781 C 35.390625 182.433594 31.757812 183.460938 31.292969 179.675781 C 30.824219 175.890625 34.601562 172.308594 39.734375 171.675781 C 44.863281 171.042969 49.398438 173.597656 49.867188 177.382812 Z M 26.589844 176.292969 C 21.835938 183.898438 24.152344 193.917969 31.757812 198.671875 C 39.367188 203.421875 49.386719 201.109375 54.140625 193.503906 C 58.890625 185.898438 56.578125 175.878906 48.96875 171.125 C 41.363281 166.375 31.339844 168.691406 26.589844 176.292969 " fill-opacity="1" fill-rule="nonzero"/><path fill="#6ed0eb" d="M 296.429688 188.972656 C 295.164062 191.554688 292.207031 189.628906 288.707031 187.917969 C 285.207031 186.210938 282.492188 185.363281 283.753906 182.78125 C 285.019531 180.195312 288.878906 179.488281 292.378906 181.199219 C 295.878906 182.914062 297.691406 186.390625 296.429688 188.972656 Z M 282.179688 178.710938 C 276.042969 181.554688 273.382812 188.832031 276.230469 194.964844 C 279.074219 201.097656 286.359375 203.757812 292.488281 200.914062 C 298.625 198.066406 301.289062 190.785156 298.4375 184.652344 C 295.59375 178.523438 288.308594 175.859375 282.179688 178.710938 " fill-opacity="1" fill-rule="nonzero"/><path fill="#6ed0eb" d="M 60.738281 224.339844 C 60.53125 227.203125 57.066406 226.519531 53.179688 226.238281 C 49.292969 225.957031 46.460938 226.183594 46.667969 223.316406 C 46.875 220.449219 50.195312 218.351562 54.078125 218.632812 C 57.964844 218.914062 60.945312 221.46875 60.738281 224.339844 Z M 43.683594 220.125 C 39.054688 225.054688 39.300781 232.804688 44.230469 237.429688 C 49.160156 242.058594 56.910156 241.8125 61.539062 236.882812 C 66.164062 231.953125 65.921875 224.207031 60.988281 219.578125 C 56.058594 214.949219 48.3125 215.199219 43.683594 220.125 " fill-opacity="1" fill-rule="nonzero"/><path fill="#6ed0eb" d="M 280.25 154.78125 C 279.542969 156.226562 277.886719 155.148438 275.925781 154.191406 C 273.964844 153.234375 272.445312 152.757812 273.152344 151.308594 C 273.855469 149.863281 276.023438 149.46875 277.980469 150.425781 C 279.941406 151.386719 280.957031 153.335938 280.25 154.78125 Z M 272.265625 149.03125 C 268.832031 150.625 267.339844 154.703125 268.933594 158.136719 C 270.53125 161.570312 274.609375 163.0625 278.042969 161.46875 C 281.476562 159.871094 282.96875 155.796875 281.375 152.363281 C 279.777344 148.925781 275.699219 147.4375 272.265625 149.03125 " fill-opacity="1" fill-rule="nonzero"/><path fill="#6ed0eb" d="M 71.09375 263.226562 C 70.382812 264.671875 68.726562 263.59375 66.765625 262.636719 C 64.808594 261.675781 63.285156 261.203125 63.992188 259.757812 C 64.699219 258.308594 66.863281 257.914062 68.824219 258.871094 C 70.785156 259.832031 71.800781 261.777344 71.09375 263.226562 Z M 63.109375 257.476562 C 59.675781 259.070312 58.183594 263.148438 59.777344 266.582031 C 61.371094 270.015625 65.449219 271.507812 68.886719 269.914062 C 72.320312 268.320312 73.8125 264.242188 72.21875 260.808594 C 70.621094 257.375 66.542969 255.882812 63.109375 257.476562 " fill-opacity="1" fill-rule="nonzero"/><path fill="#6ed0eb" d="M 49.65625 152.226562 C 48.949219 153.671875 47.292969 152.59375 45.332031 151.632812 C 43.371094 150.675781 41.851562 150.203125 42.558594 148.757812 C 43.265625 147.308594 45.429688 146.914062 47.390625 147.871094 C 49.351562 148.832031 50.367188 150.777344 49.65625 152.226562 Z M 41.675781 146.476562 C 38.242188 148.070312 36.75 152.148438 38.34375 155.582031 C 39.9375 159.015625 44.015625 160.507812 47.453125 158.914062 C 50.886719 157.320312 52.378906 153.242188 50.785156 149.804688 C 49.1875 146.371094 45.109375 144.878906 41.675781 146.476562 " fill-opacity="1" fill-rule="nonzero"/><g fill="#3871c1" fill-opacity="1"><g transform="translate(27.617732, 319.147063)"><g><path d="M 11.71875 -32.570312 L 3 -32.570312 L 3 0 L 11.71875 0 C 16.988281 0 20.441406 -3.269531 20.441406 -8.222656 L 20.441406 -24.347656 C 20.441406 -29.34375 17.078125 -32.570312 11.71875 -32.570312 Z M 14.671875 -8.265625 C 14.671875 -6.042969 13.898438 -5.042969 11.71875 -5.042969 L 8.722656 -5.042969 L 8.722656 -27.527344 L 11.71875 -27.527344 C 13.898438 -27.527344 14.671875 -26.527344 14.671875 -24.300781 Z M 14.671875 -8.265625 "/></g></g></g><g fill="#3871c1" fill-opacity="1"><g transform="translate(51.053324, 319.147063)"><g><path d="M 11.582031 0.453125 C 17.035156 0.453125 20.714844 -2.863281 20.714844 -7.722656 L 20.714844 -32.570312 L 14.898438 -32.570312 L 14.898438 -7.8125 C 14.898438 -5.679688 13.992188 -4.589844 11.582031 -4.589844 C 9.402344 -4.589844 8.539062 -5.585938 8.539062 -7.8125 L 8.539062 -32.570312 L 2.769531 -32.570312 L 2.769531 -7.722656 C 2.769531 -2.816406 6.222656 0.453125 11.582031 0.453125 Z M 11.582031 0.453125 "/></g></g></g><g fill="#3871c1" fill-opacity="1"><g transform="translate(75.215604, 319.147063)"><g><path d="M 11.71875 -32.570312 L 3 -32.570312 L 3 0 L 11.71875 0 C 16.988281 0 20.441406 -3.269531 20.441406 -8.222656 L 20.441406 -24.347656 C 20.441406 -29.34375 17.078125 -32.570312 11.71875 -32.570312 Z M 14.671875 -8.265625 C 14.671875 -6.042969 13.898438 -5.042969 11.71875 -5.042969 L 8.722656 -5.042969 L 8.722656 -27.527344 L 11.71875 -27.527344 C 13.898438 -27.527344 14.671875 -26.527344 14.671875 -24.300781 Z M 14.671875 -8.265625 "/></g></g></g><g fill="#3871c1" fill-opacity="1"><g transform="translate(98.651199, 319.147063)"><g><path d="M 18.851562 -27.527344 L 18.851562 -32.570312 L 3 -32.570312 L 3 0 L 18.851562 0 L 18.851562 -5.042969 L 8.722656 -5.042969 L 8.722656 -14.355469 L 17.988281 -14.355469 L 17.988281 -19.398438 L 8.722656 -19.398438 L 8.722656 -27.527344 Z M 18.851562 -27.527344 "/></g></g></g><g fill="#3871c1" fill-opacity="1"><g transform="translate(119.770519, 319.147063)"><g><path d="M 18.851562 -27.527344 L 18.851562 -32.570312 L 3 -32.570312 L 3 0 L 18.851562 0 L 18.851562 -5.042969 L 8.722656 -5.042969 L 8.722656 -14.355469 L 17.988281 -14.355469 L 17.988281 -19.398438 L 8.722656 -19.398438 L 8.722656 -27.527344 Z M 18.851562 -27.527344 "/></g></g></g><g fill="#3871c1" fill-opacity="1"><g transform="translate(140.889839, 319.147063)"><g/></g></g><g fill="#3871c1" fill-opacity="1"><g transform="translate(150.700247, 319.147063)"><g><path d="M 8.765625 -5.042969 L 8.765625 -32.570312 L 3 -32.570312 L 3 0 L 19.667969 0 L 19.667969 -5.042969 Z M 8.765625 -5.042969 "/></g></g></g><g fill="#3871c1" fill-opacity="1"><g transform="translate(171.138304, 319.147063)"><g><path d="M 16.488281 0 L 22.347656 0 L 13.808594 -32.570312 L 8.996094 -32.570312 L 0.5 0 L 6.269531 0 L 7.722656 -6.496094 L 14.992188 -6.496094 Z M 8.902344 -11.582031 L 10.855469 -20.214844 C 11.039062 -20.894531 11.21875 -21.667969 11.355469 -22.484375 C 11.492188 -21.621094 11.675781 -20.851562 11.855469 -20.125 L 13.808594 -11.582031 Z M 8.902344 -11.582031 "/></g></g></g><g fill="#3871c1" fill-opacity="1"><g transform="translate(194.664723, 319.147063)"><g><path d="M 11.582031 0.453125 C 17.035156 0.453125 20.714844 -2.863281 20.714844 -7.722656 L 20.714844 -32.570312 L 14.898438 -32.570312 L 14.898438 -7.8125 C 14.898438 -5.679688 13.992188 -4.589844 11.582031 -4.589844 C 9.402344 -4.589844 8.539062 -5.585938 8.539062 -7.8125 L 8.539062 -32.570312 L 2.769531 -32.570312 L 2.769531 -7.722656 C 2.769531 -2.816406 6.222656 0.453125 11.582031 0.453125 Z M 11.582031 0.453125 "/></g></g></g><g fill="#3871c1" fill-opacity="1"><g transform="translate(218.827011, 319.147063)"><g><path d="M 15.945312 -32.570312 L 15.945312 -17.125 L 16.445312 -10.585938 C 16.214844 -11.945312 15.488281 -15.535156 14.761719 -17.441406 L 9.359375 -32.570312 L 3 -32.570312 L 3 0 L 8.496094 0 L 8.496094 -16.671875 L 7.996094 -22.804688 C 8.265625 -21.167969 8.949219 -17.941406 9.675781 -16.214844 L 15.988281 0 L 21.53125 0 L 21.53125 -32.570312 Z M 15.945312 -32.570312 "/></g></g></g><g fill="#3871c1" fill-opacity="1"><g transform="translate(244.079287, 319.147063)"><g><path d="M 11.71875 -32.570312 L 3 -32.570312 L 3 0 L 11.71875 0 C 16.988281 0 20.441406 -3.269531 20.441406 -8.222656 L 20.441406 -24.347656 C 20.441406 -29.34375 17.078125 -32.570312 11.71875 -32.570312 Z M 14.671875 -8.265625 C 14.671875 -6.042969 13.898438 -5.042969 11.71875 -5.042969 L 8.722656 -5.042969 L 8.722656 -27.527344 L 11.71875 -27.527344 C 13.898438 -27.527344 14.671875 -26.527344 14.671875 -24.300781 Z M 14.671875 -8.265625 "/></g></g></g><g fill="#3871c1" fill-opacity="1"><g transform="translate(267.514878, 319.147063)"><g><path d="M 16.214844 0 L 22.578125 0 L 16.261719 -13.628906 C 18.898438 -14.992188 20.351562 -17.671875 20.351562 -20.941406 L 20.351562 -24.347656 C 20.351562 -29.300781 16.945312 -32.570312 11.582031 -32.570312 L 3 -32.570312 L 3 0 L 8.765625 0 L 8.765625 -12.945312 C 9.3125 -12.808594 9.855469 -12.71875 10.402344 -12.671875 Z M 11.582031 -27.527344 C 13.765625 -27.527344 14.535156 -26.527344 14.535156 -24.300781 L 14.535156 -21.03125 C 14.535156 -18.898438 13.765625 -17.808594 11.402344 -17.808594 C 10.765625 -17.808594 9.8125 -17.941406 8.765625 -18.125 L 8.765625 -27.527344 Z M 11.582031 -27.527344 "/></g></g></g><g fill="#3871c1" fill-opacity="1"><g transform="translate(291.268398, 319.147063)"><g><path d="M 23.167969 -32.570312 L 16.945312 -32.570312 L 11.71875 -19.894531 L 6.496094 -32.570312 L 0.273438 -32.570312 L 8.859375 -12.945312 L 8.859375 0 L 14.625 0 L 14.625 -13.082031 Z M 23.167969 -32.570312 "/></g></g></g><g fill="#b85e0a" fill-opacity="1"><g transform="translate(35.60714, 366.003665)"><g><path d="M 14.410156 -4.523438 C 13.675781 -3.824219 11.726562 -2.757812 9.964844 -2.757812 C 7.574219 -2.757812 5.699219 -3.824219 5.699219 -6.03125 L 5.699219 -20.292969 C 5.699219 -22.425781 6.910156 -23.566406 9.191406 -23.566406 C 10.183594 -23.566406 11.359375 -23.273438 12.277344 -22.976562 L 12.277344 -18.859375 L 15.589844 -18.859375 L 15.589844 -24.816406 C 14.082031 -25.917969 11.875 -26.691406 9.226562 -26.691406 C 4.632812 -26.691406 2.132812 -24.191406 2.132812 -20.367188 L 2.132812 -5.957031 C 2.132812 -2.09375 4.667969 0.367188 9.964844 0.367188 C 12.09375 0.367188 14.59375 -0.660156 16.027344 -1.949219 Z M 14.410156 -4.523438 "/></g></g></g><g fill="#b85e0a" fill-opacity="1"><g transform="translate(59.093056, 366.003665)"><g><path d="M 2.132812 0 L 5.515625 0 L 5.515625 -26.542969 L 2.132812 -26.542969 Z M 2.132812 0 "/></g></g></g><g fill="#b85e0a" fill-opacity="1"><g transform="translate(72.988039, 366.003665)"><g><path d="M 1.765625 -5.660156 C 1.765625 -1.949219 4.117188 0.367188 8.53125 0.367188 C 10.625 0.367188 12.425781 -0.21875 13.859375 -1.507812 L 12.277344 -3.933594 C 11.507812 -3.234375 10.257812 -2.609375 8.53125 -2.609375 C 6.214844 -2.609375 5.183594 -3.566406 5.183594 -5.734375 L 5.183594 -7.832031 L 13.859375 -7.832031 L 13.859375 -11.910156 C 13.859375 -15.625 11.582031 -17.941406 7.867188 -17.941406 C 4.191406 -17.941406 1.765625 -15.589844 1.765625 -11.910156 Z M 5.148438 -10.515625 L 5.148438 -11.839844 C 5.148438 -13.96875 6.066406 -14.964844 7.867188 -14.964844 C 9.632812 -14.964844 10.441406 -14.007812 10.441406 -11.839844 L 10.441406 -10.515625 Z M 5.148438 -10.515625 "/></g></g></g><g fill="#b85e0a" fill-opacity="1"><g transform="translate(94.489627, 366.003665)"><g><path d="M 6.839844 0.367188 C 9.816406 0.476562 12.390625 -0.589844 13.015625 -0.84375 L 13.015625 -12.207031 C 13.015625 -16.027344 11.214844 -17.941406 7.351562 -17.941406 C 5 -17.941406 2.757812 -17.425781 2.207031 -17.277344 L 2.207031 -11.800781 L 5.148438 -11.800781 L 5.148438 -14.667969 C 5.660156 -14.777344 6.46875 -14.964844 7.351562 -14.964844 C 9.191406 -14.964844 9.632812 -14.484375 9.632812 -12.167969 L 9.632812 -10.515625 C 9.226562 -10.402344 8.75 -10.257812 8.308594 -10.148438 C 4.523438 -9.042969 1.398438 -7.976562 1.398438 -4.484375 C 1.398438 -1.140625 3.34375 0.367188 6.839844 0.367188 Z M 7.28125 -2.28125 C 5.660156 -2.28125 4.816406 -2.941406 4.816406 -4.484375 C 4.816406 -6.03125 5.957031 -6.691406 8.199219 -7.425781 C 8.566406 -7.574219 9.449219 -7.832031 9.707031 -7.90625 L 9.707031 -2.574219 C 9.300781 -2.425781 8.308594 -2.28125 7.28125 -2.28125 Z M 7.28125 -2.28125 "/></g></g></g><g fill="#b85e0a" fill-opacity="1"><g transform="translate(115.513502, 366.003665)"><g><path d="M 10.734375 -12.023438 L 10.734375 0 L 14.117188 0 L 14.117188 -12.023438 C 14.117188 -15.402344 12.5 -17.941406 8.34375 -17.941406 C 5.917969 -17.941406 3.785156 -17.316406 2.132812 -16.839844 L 2.132812 0 L 5.515625 0 L 5.515625 -14.484375 C 5.84375 -14.59375 7.023438 -14.964844 8.234375 -14.964844 C 9.851562 -14.964844 10.734375 -13.933594 10.734375 -12.023438 Z M 10.734375 -12.023438 "/></g></g></g><g fill="#b85e0a" fill-opacity="1"><g transform="translate(137.676513, 366.003665)"><g/></g></g><g fill="#b85e0a" fill-opacity="1"><g transform="translate(152.049204, 366.003665)"><g><path d="M 8.714844 0.515625 C 12.792969 0.515625 15.074219 -1.691406 15.074219 -5.589844 L 15.074219 -12.390625 L 18.675781 -12.390625 L 18.675781 -15.515625 L 15.074219 -15.515625 L 15.074219 -18.015625 L 11.46875 -18.015625 L 11.46875 -15.515625 L 8.714844 -15.515625 C 6.765625 -15.515625 6.175781 -16.175781 6.175781 -18.566406 L 6.175781 -20.367188 C 6.175781 -22.683594 6.910156 -23.417969 8.898438 -23.417969 C 9.851562 -23.417969 11.066406 -23.089844 11.582031 -22.832031 L 11.582031 -20.257812 L 14.890625 -20.257812 L 14.890625 -24.300781 C 13.382812 -25.773438 11.214844 -26.542969 8.898438 -26.542969 C 4.890625 -26.542969 2.609375 -24.375 2.609375 -20.441406 L 2.609375 -18.492188 C 2.609375 -16.582031 3.089844 -15.074219 4.082031 -14.082031 C 2.792969 -13.050781 2.132812 -11.507812 2.132812 -9.449219 L 2.132812 -5.589844 C 2.132812 -1.726562 4.59375 0.515625 8.714844 0.515625 Z M 8.714844 -2.609375 C 6.582031 -2.609375 5.734375 -3.417969 5.734375 -5.660156 L 5.734375 -9.375 C 5.734375 -11.582031 6.542969 -12.390625 8.714844 -12.390625 L 11.46875 -12.390625 L 11.46875 -5.660156 C 11.46875 -3.34375 10.773438 -2.609375 8.714844 -2.609375 Z M 8.714844 -2.609375 "/></g></g></g><g fill="#b85e0a" fill-opacity="1"><g transform="translate(176.63751, 366.003665)"><g/></g></g><g fill="#b85e0a" fill-opacity="1"><g transform="translate(191.0102, 366.003665)"><g><path d="M 14.707031 -23.234375 L 14.707031 -26.359375 L 2.683594 -26.359375 L 2.683594 0 L 6.285156 0 L 6.285156 -12.132812 L 14.007812 -12.132812 L 14.007812 -15.257812 L 6.285156 -15.257812 L 6.285156 -23.234375 Z M 14.707031 -23.234375 "/></g></g></g><g fill="#b85e0a" fill-opacity="1"><g transform="translate(212.658751, 366.003665)"><g><path d="M 10.367188 -14.851562 L 10.476562 -17.832031 C 8.015625 -17.832031 3.785156 -17.242188 2.132812 -16.910156 L 2.132812 0 L 5.441406 0 L 5.441406 -14.410156 C 5.476562 -14.484375 9.152344 -14.816406 10.367188 -14.851562 Z M 10.367188 -14.851562 "/></g></g></g><g fill="#b85e0a" fill-opacity="1"><g transform="translate(229.860934, 366.003665)"><g><path d="M 1.765625 -5.660156 C 1.765625 -1.949219 4.117188 0.367188 8.53125 0.367188 C 10.625 0.367188 12.425781 -0.21875 13.859375 -1.507812 L 12.277344 -3.933594 C 11.507812 -3.234375 10.257812 -2.609375 8.53125 -2.609375 C 6.214844 -2.609375 5.183594 -3.566406 5.183594 -5.734375 L 5.183594 -7.832031 L 13.859375 -7.832031 L 13.859375 -11.910156 C 13.859375 -15.625 11.582031 -17.941406 7.867188 -17.941406 C 4.191406 -17.941406 1.765625 -15.589844 1.765625 -11.910156 Z M 5.148438 -10.515625 L 5.148438 -11.839844 C 5.148438 -13.96875 6.066406 -14.964844 7.867188 -14.964844 C 9.632812 -14.964844 10.441406 -14.007812 10.441406 -11.839844 L 10.441406 -10.515625 Z M 5.148438 -10.515625 "/></g></g></g><g fill="#b85e0a" fill-opacity="1"><g transform="translate(251.362517, 366.003665)"><g><path d="M 0.84375 -2.351562 C 2.058594 -0.660156 4.339844 0.332031 6.691406 0.367188 C 10.109375 0.40625 12.648438 -1.582031 12.574219 -4.59375 C 12.535156 -6.582031 11.617188 -8.273438 9.410156 -9.375 L 6.691406 -10.773438 C 5.257812 -11.507812 4.851562 -12.132812 4.851562 -13.089844 C 4.851562 -14.226562 5.589844 -15.148438 6.910156 -15.148438 C 7.832031 -15.148438 8.601562 -14.851562 8.933594 -14.742188 L 8.933594 -12.023438 L 11.875 -12.023438 L 11.875 -16.617188 C 10.734375 -17.207031 9.117188 -17.941406 6.984375 -17.941406 C 3.75 -17.941406 1.46875 -15.734375 1.542969 -12.757812 C 1.582031 -10.882812 2.316406 -9.449219 4.851562 -8.160156 L 7.609375 -6.765625 C 8.53125 -6.285156 9.007812 -5.476562 9.007812 -4.484375 C 9.007812 -3.308594 8.199219 -2.574219 6.726562 -2.609375 C 5.40625 -2.648438 4.226562 -3.160156 3.492188 -4.191406 Z M 0.84375 -2.351562 "/></g></g></g><g fill="#b85e0a" fill-opacity="1"><g transform="translate(271.394212, 366.003665)"><g><path d="M 2.132812 0 L 5.515625 0 L 5.515625 -14.523438 C 5.550781 -14.59375 7.023438 -14.964844 8.234375 -14.964844 C 9.851562 -14.964844 10.699219 -14.300781 10.699219 -12.71875 L 10.699219 0 L 14.082031 0 L 14.082031 -13.089844 C 14.082031 -16.46875 12.5 -17.941406 8.675781 -17.941406 C 7.5 -17.941406 6.359375 -17.757812 5.441406 -17.535156 L 5.441406 -26.691406 L 2.132812 -26.691406 Z M 2.132812 0 "/></g></g></g><g fill="#b85e0a" fill-opacity="1"><g transform="translate(293.481761, 366.003665)"><g/></g></g></svg>